<?xml version="1.0" encoding="utf-8"?>
<!-- Generator: Adobe Illustrator 16.0.0, SVG Export Plug-In . SVG Version: 6.00 Build 0)  -->
<!DOCTYPE svg PUBLIC "-//W3C//DTD SVG 1.1//EN" "http://www.w3.org/Graphics/SVG/1.1/DTD/svg11.dtd">
<svg version="1.1" id="Calque_1" xmlns="http://www.w3.org/2000/svg" xmlns:xlink="http://www.w3.org/1999/xlink" x="0px" y="0px"
	 width="1200px" height="760px" viewBox="0 0 1200 760" enable-background="new 0 0 1200 760" xml:space="preserve">
<g id="Calque_1_1_">
	
		<linearGradient id="SVGID_1_" gradientUnits="userSpaceOnUse" x1="-27.698" y1="293.8215" x2="731.7078" y2="1053.2273" gradientTransform="matrix(1 0 0 -1 279.1001 843.4009)">
		<stop  offset="0" style="stop-color:#00AEEF;stop-opacity:0.6"/>
		<stop  offset="1" style="stop-color:#21409A"/>
	</linearGradient>
	<path fill="url(#SVGID_1_)" d="M1200-20.634v308.682c0,0,5.22,98.053,0,116.626c-5.219,18.569,0,19.312-16.52,34.17
		c-16.521,14.854,0,0-150.436,121.082c-150.435,121.08-235.652-6.688-243.479-24.515c-7.827-17.828-76.521-86.17-195.654-28.229
		c-119.13,57.938-201.739-11.886-200-43.827s-52.174-132.964-194.783-102.51C56.519,391.303,0,293.99,0,293.99V-20.634H1200z"/>
	
		<linearGradient id="SVGID_2_" gradientUnits="userSpaceOnUse" x1="-279.1003" y1="748.2952" x2="-279.1003" y2="748.2952" gradientTransform="matrix(1 0 0 -1 279.1001 843.4009)">
		<stop  offset="0" style="stop-color:#00AEEF;stop-opacity:0.6"/>
		<stop  offset="1" style="stop-color:#21409A"/>
	</linearGradient>
	<path fill="url(#SVGID_2_)" d="M0,95.106"/>
	
		<linearGradient id="SVGID_3_" gradientUnits="userSpaceOnUse" x1="35.925" y1="557.343" x2="808.0366" y2="1329.4546" gradientTransform="matrix(0.6904 -0.2694 -0.4169 -1.0683 546.073 1003.9127)">
		<stop  offset="0" style="stop-color:#00AEEF;stop-opacity:0.1"/>
		<stop  offset="0.97" style="stop-color:#1C449C;stop-opacity:0.49"/>
	</linearGradient>
	<path fill="url(#SVGID_3_)" d="M737.415-498.589l154.304,378.278c0,0,52.617,118.813,58.298,142.918
		c5.681,24.104,9.653,23.669,5.675,46.132c-3.98,22.463,0,0-43.341,187.158c-43.34,187.153-166.047,52.547-180.361,32.716
		c-14.314-19.83-95.908-85.87-149.199,15.841c-53.29,101.708-145.229,37.437-159.995-2.157
		c-14.767-39.592-102.49-149.497-185.729-75.416c-83.239,74.081-170.907-30.6-170.907-30.6L-91.117-189.281L737.415-498.589z"/>
</g>
<g id="Calque_2" display="none">
	
		<linearGradient id="SVGID_4_" gradientUnits="userSpaceOnUse" x1="13.7766" y1="544.7776" x2="126.0236" y2="657.0245" gradientTransform="matrix(1 0 0 -1 279.1001 843.4009)">
		<stop  offset="0" style="stop-color:#00AEEF;stop-opacity:0"/>
		<stop  offset="1" style="stop-color:#21409A"/>
	</linearGradient>
	<ellipse display="inline" fill="url(#SVGID_4_)" cx="349" cy="242.5" rx="65" ry="91.5"/>
	
		<linearGradient id="SVGID_5_" gradientUnits="userSpaceOnUse" x1="228.7424" y1="554.2434" x2="321.0585" y2="646.5595" gradientTransform="matrix(1 0 0 -1 279.1001 843.4009)">
		<stop  offset="0" style="stop-color:#00AEEF;stop-opacity:0"/>
		<stop  offset="1" style="stop-color:#21409A"/>
	</linearGradient>
	<ellipse display="inline" fill="url(#SVGID_5_)" cx="554" cy="243" rx="59" ry="71"/>
	
		<linearGradient id="SVGID_6_" gradientUnits="userSpaceOnUse" x1="418.4534" y1="546.4534" x2="514.3458" y2="642.3457" gradientTransform="matrix(1 0 0 -1 279.1001 843.4009)">
		<stop  offset="0" style="stop-color:#00AEEF;stop-opacity:0"/>
		<stop  offset="1" style="stop-color:#21409A"/>
	</linearGradient>
	<ellipse display="inline" fill="url(#SVGID_6_)" cx="745.5" cy="249" rx="70.5" ry="65"/>
</g>
</svg>
